<?xml version="1.0" encoding="utf-8"?>
<!-- Generator: Adobe Illustrator 19.0.0, SVG Export Plug-In . SVG Version: 6.00 Build 0)  -->
<svg version="1.1" id="Warstwa_1" xmlns="http://www.w3.org/2000/svg" xmlns:xlink="http://www.w3.org/1999/xlink" x="0px" y="0px"
	 viewBox="0 0 1920 52.8" style="enable-background:new 0 0 1920 52.8;" xml:space="preserve">
<style type="text/css">
	.st0{fill:#225C92;}
	.st1{fill:url(#XMLID_56_);}
</style>
<path id="XMLID_16_" class="st0" d="M1097.7,1h-95.8h-79.1H818.9H0v8.3l828.6,0c3.3,0.7,12.3,4.1,23.6,20.3
	c9.8,14,25.6,19.9,33.4,22.1c2.7,0.7,5.5,1.1,8.3,1.1l42.9,0h47l42.2,0c3.5,0,7-0.5,10.3-1.5c8.2-2.5,22.7-8.5,32-21.6
	c11.4-16.2,20.4-19.6,23.7-20.3l828,0V1C1920,1,1097.7,1,1097.7,1z"/>
<radialGradient id="XMLID_56_" cx="960" cy="25.89" r="679.0693" gradientUnits="userSpaceOnUse">
	<stop  offset="0" style="stop-color:#032340"/>
	<stop  offset="1" style="stop-color:#2A4572"/>
</radialGradient>
<path id="XMLID_31_" class="st1" d="M1097.6,0h-95.8h-79.1H818.9H0v8.3l828.6,0c3.3,0.7,12.3,4.1,23.6,20.3
	c9.8,14,25.6,19.9,33.4,22.1c2.7,0.7,5.5,1.1,8.3,1.1l42.9,0h47l42.2,0c3.5,0,7-0.5,10.3-1.5c8.2-2.5,22.7-8.5,32-21.6
	c11.4-16.2,20.4-19.6,23.7-20.3l828,0V0C1920,0,1097.6,0,1097.6,0z"/>
</svg>
